Coordinates
version=1
nRows=12
nColumns=24
inDegrees=yes

Units are S.I. units (second, meters, Newtons, ...)
Angles are in degrees.

endheader
time	pelvis_tilt	pelvis_list	pelvis_rotation	pelvis_tx	pelvis_ty	pelvis_tz	hip_flexion_r	hip_adduction_r	hip_rotation_r	knee_angle_r	ankle_angle_r	subtalar_angle_r	mtp_angle_r	hip_flexion_l	hip_adduction_l	hip_rotation_l	knee_angle_l	ankle_angle_l	subtalar_angle_l	mtp_angle_l	lumbar_extension	lumbar_bending	lumbar_rotation
      1.12883333	      9.88074716	      4.82383733	     -3.43201855	      0.14623431	      1.01262639	      0.36079656	    -18.15744607	     -7.57414601	     -6.29509950	    -41.90012350	    -20.78590544	     -5.14129831	     39.69878005	      6.42872285	     11.10398731	      5.21962965	    -16.84795601	      0.53161288	    -19.39853870	     -3.00439965	    -22.11977360	     -0.80684416	      1.29464945
      1.13300000	      9.91073548	      4.95443567	     -3.50567782	      0.15165293	      1.01230501	      0.36045660	    -17.58509699	     -7.87164067	     -6.27238937	    -43.23103665	    -22.03977679	     -5.47689177	     39.06208901	      6.39510423	     11.30268092	      4.99449195	    -17.52700316	      1.22171734	    -19.06668211	     -3.30441484	    -22.14814329	     -0.94133888	      1.16779213
      1.13716667	      9.99788119	      5.12775141	     -3.61117492	      0.15705471	      1.01210163	      0.36010499	    -17.05777494	     -8.23260358	     -6.24651372	    -44.55216961	    -23.28697816	     -5.91541305	     38.72590441	      6.20208502	     11.57624419	      4.96110676	    -17.98321980	      1.62787530	    -19.22275115	     -3.40983248	    -22.23936250	     -1.13174314	      1.06510334
      1.14133333	     10.09684970	      5.30983468	     -3.72556589	      0.16243767	      1.01194786	      0.35978836	    -16.52733998	     -8.60290879	     -6.19739986	    -45.87807139	    -24.42093181	     -6.11804538	     32.64159791	      5.97987918	     11.84595240	      4.86964445	    -18.40552798	      2.17491364	    -19.12598985	     -5.01372000	    -22.34224863	     -1.35438697	      0.98586637
      1.14550000	     10.15439175	      5.48163086	     -3.82584682	      0.16779885	      1.01178862	      0.35944404	    -15.94554112	     -8.95480606	     -6.14766175	    -47.16796122	    -25.59486782	     -6.47982036	     32.52573624	      5.77571784	     12.10561970	      4.81338775	    -18.76924324	      2.59272712	    -19.16909510	     -5.00076882	    -22.40069621	     -1.54515691	      0.84227193
      1.14966667	     10.23890452	      5.61259224	     -3.94290344	      0.17313666	      1.01172723	      0.35914794	    -15.39075001	     -9.25026571	     -6.03624731	    -48.40288712	    -26.77516659	     -6.86104750	     32.03470915	      5.51538398	     12.31082387	      4.71322100	    -19.08498982	      3.13346446	    -19.05023962	     -4.99433886	    -22.47666569	     -1.68042276	      0.71463879
      1.15383333	     10.32694770	      5.78081635	     -4.05375482	      0.17844070	      1.01166268	      0.35882064	    -14.81809581	     -9.59697800	     -5.96661234	    -49.66655698	    -27.73860432	     -7.10276117	     25.94390698	      5.23166537	     12.55924970	      4.62463176	    -19.34326448	      3.55241914	    -19.02464949	     -5.13942320	    -22.57235404	     -1.86792038	      0.62975784
      1.15800000	     10.39493772	      5.93202480	     -4.17005944	      0.18372843	      1.01165193	      0.35851600	    -14.22273381	     -9.91209081	     -5.85690929	    -50.86649333	    -28.73413065	     -7.47673526	     25.82050349	      4.93348975	     12.78928707	      4.57264292	    -19.52719447	      3.91988675	    -19.05347553	     -5.13199262	    -22.64118571	     -2.03964939	      0.49402782
      1.16216667	     10.49925005	      6.08845412	     -4.30027913	      0.18902539	      1.01173371	      0.35821940	    -13.66546427	    -10.23924102	     -5.74446658	    -52.02197378	    -29.63552535	     -7.79687748	     25.66014134	      4.55335037	     13.02450543	      4.51387966	    -19.61746657	      4.28349827	    -19.05072103	     -5.12567423	    -22.73120172	     -2.19631475	      0.37553727
      1.16633333	     10.57419315	      6.17446001	     -4.42842333	      0.19424841	      1.01185106	      0.35797778	    -13.06603978	    -10.44974277	     -5.54803416	    -53.14731764	    -30.37222405	     -8.08831906	     18.78364787	      4.21566530	     13.16982663	      4.39610139	    -19.74055554	      4.70837728	    -18.95718615	     -5.28259511	    -22.82089556	     -2.29329485	      0.30742469
      1.17050000	     10.65713775	      6.30051649	     -4.54214173	      0.19948609	      1.01200340	      0.35767346	    -12.48085004	    -10.72010504	     -5.41704022	    -54.22407656	    -31.04447257	     -8.41278920	     18.69780128	      3.81784820	     13.37395765	      4.39040479	    -19.75255864	      5.02062189	    -18.98209997	     -5.27463645	    -22.89968231	     -2.42043769	      0.15847462
      1.17466667	     10.72864608	      6.37596401	     -4.65197310	      0.20468441	      1.01221818	      0.35741148	    -11.88765289	    -10.90258278	     -5.23161134	    -55.23677240	    -31.63471795	     -8.80936818	     18.45328275	      3.41954153	     13.51548997	      4.36950095	    -19.74708494	      5.33458112	    -18.97985332	     -5.26944431	    -22.98142509	     -2.49925314	      0.01679275
